FILE "Shining Force CD (USA).bin" BINARY
    TRACK 01 MODE1/2352
      INDEX 01 00:00:00
    TRACK 02 AUDIO
      INDEX 00 06:29:19
      INDEX 01 06:31:19
    TRACK 03 AUDIO
      INDEX 00 06:39:20
      INDEX 01 06:41:20
    TRACK 04 AUDIO
      INDEX 00 06:59:03
      INDEX 01 07:01:03
    TRACK 05 AUDIO
      INDEX 00 07:54:09
      INDEX 01 07:56:09
    TRACK 06 AUDIO
      INDEX 00 09:23:33
      INDEX 01 09:25:33
    TRACK 07 AUDIO
      INDEX 00 11:54:59
      INDEX 01 11:56:59
    TRACK 08 AUDIO
      INDEX 00 13:29:37
      INDEX 01 13:31:37
    TRACK 09 AUDIO
      INDEX 00 14:30:22
      INDEX 01 14:32:22
    TRACK 10 AUDIO
      INDEX 00 14:41:44
      INDEX 01 14:43:44
    TRACK 11 AUDIO
      INDEX 00 14:53:39
      INDEX 01 14:55:39
    TRACK 12 AUDIO
      INDEX 00 15:06:12
      INDEX 01 15:08:12
    TRACK 13 AUDIO
      INDEX 00 16:33:11
      INDEX 01 16:35:11
    TRACK 14 AUDIO
      INDEX 00 18:59:26
      INDEX 01 19:01:26
    TRACK 15 AUDIO
      INDEX 00 21:26:12
      INDEX 01 21:28:12
    TRACK 16 AUDIO
      INDEX 00 22:52:15
      INDEX 01 22:54:15
    TRACK 17 AUDIO
      INDEX 00 23:29:56
      INDEX 01 23:31:56
    TRACK 18 AUDIO
      INDEX 00 24:16:16
      INDEX 01 24:18:16
    TRACK 19 AUDIO
      INDEX 00 25:09:34
      INDEX 01 25:11:34
    TRACK 20 AUDIO
      INDEX 00 25:40:57
      INDEX 01 25:42:57
    TRACK 21 AUDIO
      INDEX 00 26:09:46
      INDEX 01 26:11:46
    TRACK 22 AUDIO
      INDEX 00 26:37:32
      INDEX 01 26:39:32
    TRACK 23 AUDIO
      INDEX 00 28:34:23
      INDEX 01 28:36:23
    TRACK 24 AUDIO
      INDEX 00 30:12:28
      INDEX 01 30:14:28
    TRACK 25 AUDIO
      INDEX 00 32:01:60
      INDEX 01 32:03:60
    TRACK 26 AUDIO
      INDEX 00 33:32:72
      INDEX 01 33:34:72
    TRACK 27 AUDIO
      INDEX 00 34:55:55
      INDEX 01 34:57:55
    TRACK 28 AUDIO
      INDEX 00 36:30:02
      INDEX 01 36:32:02
    TRACK 29 AUDIO
      INDEX 00 37:34:21
      INDEX 01 37:36:21
    TRACK 30 AUDIO
      INDEX 00 38:26:33
      INDEX 01 38:28:33
    TRACK 31 AUDIO
      INDEX 00 41:36:22
      INDEX 01 41:38:22
    TRACK 32 AUDIO
      INDEX 00 45:28:12
      INDEX 01 45:30:12
    TRACK 33 AUDIO
      INDEX 00 45:39:41
      INDEX 01 45:41:41
    TRACK 34 AUDIO
      INDEX 00 45:50:46
      INDEX 01 45:52:46
    TRACK 35 AUDIO
      INDEX 00 46:00:71
      INDEX 01 46:02:71
